inDegrees=no
num_controls=7
num_derivatives=13
num_iterations=153
num_multipliers=7
num_parameters=0
num_slacks=7
num_states=26
objective=4.368504
objective_accelerations=0.230178
objective_balance=0.031070
objective_effort=0.315443
objective_height=3.742520
objective_ligament=0.049293
solver_duration=1416.996317
status=Solve_Succeeded
success=true
DataType=double
version=3
OpenSimVersion=4.4-2022-07-23-0e9fedc
endheader
time	/jointset/ground_pelvis/pelvis_tilt/value	/jointset/ground_pelvis/pelvis_tx/value	/jointset/ground_pelvis/pelvis_ty/value	/jointset/hip_l/hip_flexion_l/value	/jointset/hip_l/hip_adduction_l/value	/jointset/hip_l/hip_rotation_l/value	/jointset/back/lumbar_extension/value	/jointset/patellofemoral_l/patellar_flexion_l/value	/jointset/knee_l/knee_flexion_l/value	/jointset/knee_l/knee_adduction_l/value	/jointset/knee_l/knee_rotation_l/value	/jointset/ankle_l/ankle_angle_l/value	/jointset/subtalar_l/subtalar_angle_l/value	/jointset/ground_pelvis/pelvis_tilt/speed	/jointset/ground_pelvis/pelvis_tx/speed	/jointset/ground_pelvis/pelvis_ty/speed	/jointset/hip_l/hip_flexion_l/speed	/jointset/hip_l/hip_adduction_l/speed	/jointset/hip_l/hip_rotation_l/speed	/jointset/back/lumbar_extension/speed	/jointset/patellofemoral_l/patellar_flexion_l/speed	/jointset/knee_l/knee_flexion_l/speed	/jointset/knee_l/knee_adduction_l/speed	/jointset/knee_l/knee_rotation_l/speed	/jointset/ankle_l/ankle_angle_l/speed	/jointset/subtalar_l/subtalar_angle_l/speed	/forceset/tau_hip_flexion_l	/forceset/tau_hip_adduction_l	/forceset/tau_hip_rotation_l	/forceset/tau_knee_flexion_l	/forceset/tau_ankle_angle_l	/forceset/tau_subtalar_angle_l	/forceset/tau_lumbar_extension	lambda_cid13_p0	lambda_cid13_p1	lambda_cid13_p2	lambda_cid13_p3	lambda_cid13_p4	lambda_cid13_p5	lambda_cid14_p0	/jointset/ground_pelvis/pelvis_tilt/accel	/jointset/ground_pelvis/pelvis_tx/accel	/jointset/ground_pelvis/pelvis_ty/accel	/jointset/hip_l/hip_flexion_l/accel	/jointset/hip_l/hip_adduction_l/accel	/jointset/hip_l/hip_rotation_l/accel	/jointset/back/lumbar_extension/accel	/jointset/patellofemoral_l/patellar_flexion_l/accel	/jointset/knee_l/knee_flexion_l/accel	/jointset/knee_l/knee_adduction_l/accel	/jointset/knee_l/knee_rotation_l/accel	/jointset/ankle_l/ankle_angle_l/accel	/jointset/subtalar_l/subtalar_angle_l/accel	gamma_cid13_p0	gamma_cid13_p1	gamma_cid13_p2	gamma_cid13_p3	gamma_cid13_p4	gamma_cid13_p5	gamma_cid14_p0
0	-0.03682266475648499	0.05667755830032119	0.9203415988575439	0.3085811930696054	-0.2956403842202494	-0.3016072307464343	-0.3879500408040475	0.2499276582273226	0.249927658227084	-0.1745327473868833	-0.1745328866614933	-0.0008036543073733089	0.0004376982635243162	0	0	0	0	0	0	0	0	0	0	0	0	0	0.04135359497287293	-0.05628171964194606	-0.02083622175450331	-0.2535450933527779	0.2419359387755079	-0.004501152215483634	0.04223877544718004	33.96960476200039	-6.11051115622761	2.938603662044128	-24.32335327307138	-648.880612898516	-83.83629078985462	-23.19701638321401	1.113888067084017	-0.6986909482962833	-0.4454697314915383	3.99925252479241	-0.7170047783271504	2.661144552526443	-6.022479767051903	7.430678068951123	7.430678068950756	0.9127710462272683	-0.004809725747806862	2.774322500772562	0.1839009680379237	-1.076650786167542e-08	1.04872946715637e-07	5.131926551439007e-08	5.077420786366615e-09	4.337706094502911e-08	-2.019067912061038e-08	2.34012733435656e-09
0.01	-0.03676581046003736	0.05664364194126285	0.920319949473649	0.3087741969157365	-0.295676209871836	-0.3014738370585839	-0.3882486696000618	0.2502917719008297	0.2502917719005108	-0.1744897040420331	-0.1745305305758006	-0.0006669996587722757	0.0004462013361830051	0.01132801052096182	-0.006691148470000725	-0.004307625578831357	0.03833530822676912	-0.007131444903159924	0.02651847979787149	-0.05930483372314473	0.07249266088373071	0.07249266088372643	0.008565590605205802	0.0004356485581356111	0.02728711241371191	0.00172197704482614	0.03794014339797139	-0.06643359376230258	-0.02037812404780482	-0.2513332803105245	0.2362759656975741	0.007349392650709451	0.04577549134436416	32.49872590027301	-10.91405782524889	3.606638944233472	-24.69493520895486	-651.1111845058949	-93.73309183085725	-23.20114827536444	1.135824931287665	-0.6405072944298303	-0.4200626160428776	3.71084613221228	-0.7061878791317128	2.623159219991226	-5.821346340697965	7.109048563305052	7.10904856330484	0.8220158052453288	0.06242160223556362	2.699334410359297	0.1695279841096324	-2.945338839364844e-08	9.091143702437888e-08	9.948459638178428e-08	2.098391878918528e-08	-2.115514010305524e-08	-5.981030016012497e-08	-4.389876771761829e-09
0.02	-0.03659696258131906	0.05654557799787489	0.9202558931049712	0.3093425890761135	-0.295782344679013	-0.3010800666674338	-0.3891277189665335	0.251370909876062	0.2513709098760742	-0.1743622922426963	-0.1745248841138563	-0.0002587881263003407	0.0004725605615687683	0.022398716510394	-0.01282951686592244	-0.008481396956600501	0.07507766287719705	-0.01406183111929447	0.05207534065862205	-0.1160841140755302	0.1430048603763104	0.1430048603763041	0.01687369071352366	0.0006580753418718863	0.05431137677491	0.003571230545798474	0.03452669182346633	-0.07658546788239061	-0.01992002633982617	-0.2491214672681986	0.23061599261983	0.01919993751722717	0.04931220724165195	31.08498675007734	-15.72878827898806	4.277804471448412	-25.248462790959	-652.5518973023629	-103.5590386129326	-23.21335930582156	1.062427160784339	-0.5881349334857733	-0.4186988912792396	3.680661809524409	-0.6767930409228875	2.468820765100927	-5.517369092896052	7.034585790722193	7.034585790722272	0.8612729468485152	-0.04745408062991865	2.721752890263759	0.2093562592642426	-4.814026892562146e-08	7.694992733312078e-08	1.476499272491785e-07	3.689041679200395e-08	-8.568734115113959e-08	-9.942992119963957e-08	-1.111988087788022e-08
0.03	-0.03631858539419745	0.0563883003991642	0.9201505994568273	0.3102712750867322	-0.2959566454825769	-0.3004356620593076	-0.390562597993269	0.2531454951311305	0.2531454951310642	-0.1741529314895169	-0.1745182164588535	0.0004176612914469889	0.0005179418779238956	0.03325444732862273	-0.01859303368813247	-0.01256970025837012	0.1104592059112356	-0.02075461120095878	0.07667785212669045	-0.1705476315764233	0.2115889818957374	0.2115889818957368	0.02495686318660847	0.0006728335719736668	0.08086163231515531	0.005510523531713281	0.02928236971295972	-0.06913840669345574	-0.01911693288296399	-0.2431777326887672	0.2236608253566713	0.01632376522398957	0.05372336219154193	28.6665616161783	-14.16226085695016	4.149183481678461	-23.70783334858444	-653.8589778554465	-99.66472577153291	-23.23325897100609	1.093800635812384	-0.5655072502706326	-0.4027685859935504	3.436843947910327	-0.6589977150760727	2.436789013346321	-5.359234113198359	6.721846276002583	6.721846276003733	0.7756298704273662	0.0255697883381596	2.604129367077822	0.1870105610445887	-6.268806708133849e-08	5.810899318269813e-08	1.929771367246444e-07	4.66726740340846e-08	-1.352285016520342e-07	-1.400620943843228e-07	-1.768595656440183e-08
